<svg width="23" height="38" viewBox="0 0 23 38" fill="none" xmlns="http://www.w3.org/2000/svg">
<path d="M21.4824 0.793002C19.7171 0.605733 17.9429 0.514599 16.1677 0.520002C10.2824 0.520002 6.6249 4.2685 6.6249 10.3025V14.3993H1.68115C1.44909 14.3993 1.22653 14.4914 1.06243 14.6555C0.898339 14.8196 0.806152 15.0422 0.806152 15.2743V22.0118C0.806152 22.2438 0.898339 22.4664 1.06243 22.6305C1.22653 22.7946 1.44909 22.8868 1.68115 22.8868H6.6249V36.3968C6.6249 36.6288 6.71709 36.8514 6.88118 37.0155C7.04528 37.1796 7.26784 37.2718 7.4999 37.2718H14.4614C14.6935 37.2718 14.916 37.1796 15.0801 37.0155C15.2442 36.8514 15.3364 36.6288 15.3364 36.3968V22.8868H20.2644C20.4768 22.8869 20.6821 22.8097 20.8418 22.6696C21.0015 22.5295 21.1048 22.3361 21.1324 22.1255L22.0022 15.388C22.0183 15.2645 22.008 15.139 21.9718 15.0198C21.9356 14.9007 21.8743 14.7906 21.7921 14.697C21.71 14.6034 21.6088 14.5284 21.4953 14.4771C21.3818 14.4257 21.2587 14.3992 21.1342 14.3993H15.3364V10.971C15.3364 9.2735 15.6777 8.56475 17.8004 8.56475H21.3687C21.6007 8.56475 21.8233 8.47257 21.9874 8.30847C22.1515 8.14438 22.2437 7.92182 22.2437 7.68975V1.661C22.2438 1.44857 22.1666 1.24335 22.0265 1.08363C21.8864 0.92392 21.693 0.820619 21.4824 0.793002ZM20.4937 6.813L17.7987 6.81475C14.0239 6.81475 13.5864 9.18775 13.5864 10.971V15.276C13.5864 15.5078 13.6783 15.7301 13.8421 15.8941C14.0058 16.0581 14.2279 16.1505 14.4597 16.151H20.1402L19.4944 21.1385H14.4614C14.2293 21.1385 14.0068 21.2307 13.8427 21.3948C13.6786 21.5589 13.5864 21.7814 13.5864 22.0135V35.52H8.3749V22.0135C8.3749 21.7814 8.28272 21.5589 8.11862 21.3948C7.95453 21.2307 7.73197 21.1385 7.4999 21.1385H2.5579V16.151H7.4999C7.73197 16.151 7.95453 16.0588 8.11862 15.8947C8.28272 15.7306 8.3749 15.5081 8.3749 15.276V10.3025C8.3749 5.273 11.2887 2.27 16.1677 2.27C17.9334 2.27 19.5277 2.36625 20.4937 2.45025V6.813Z" fill="white"/>
</svg>
