<svg width="36" height="40" viewBox="0 0 36 40" fill="none" xmlns="http://www.w3.org/2000/svg">
<path d="M33.2965 29.1315L33.069 28.848C31.2683 26.5713 29.7633 25.3865 28.4718 25.2308C27.3553 25.0785 26.2755 25.8503 25.1275 26.6448L23.9008 27.4113C23.7538 27.4848 23.6085 27.5443 23.472 27.5845C22.7545 27.7875 20.9433 27.9065 19.9178 26.9685C18.7243 25.8765 16.8728 23.878 15.4325 22.1315C14.057 20.3238 12.545 18.0698 11.7558 16.6505C11.089 15.4483 11.6473 13.7665 12.02 13.1435C12.0935 13.021 12.1898 12.9003 12.2965 12.7813L13.378 11.782C13.3938 11.7663 13.4008 11.747 13.4148 11.733C13.4253 11.7225 13.4428 11.726 13.455 11.7173C14.4315 10.893 15.4413 10.0443 15.5795 8.95403C15.7423 7.67303 14.946 5.94053 13.1418 3.66553L12.9213 3.38203C11.8048 1.95053 10.116 -0.214216 7.69054 0.142784C6.73679 0.284534 5.88454 0.610034 5.00604 1.16128C4.99729 1.16653 4.99204 1.17703 4.98504 1.18228C4.97804 1.18753 4.96929 1.18753 4.96229 1.19278L3.73904 2.09928C3.72679 2.10628 3.71979 2.12203 3.70754 2.13253C3.69879 2.14128 3.68479 2.14303 3.67429 2.15178C3.53254 2.27078 3.39079 2.39328 3.25079 2.51928C2.01004 3.62528 -0.676213 6.83653 1.15604 12.776C2.33904 16.612 4.77854 21.0885 8.22779 25.747L8.19454 25.775L10.0968 28.1445L10.1125 28.1323C13.8523 32.5563 17.6585 35.9758 21.1463 38.046C23.4738 39.4285 25.5073 39.8853 27.1803 39.8853C29.3818 39.8853 30.9585 39.0943 31.7495 38.5798L32.2465 38.2473C32.3025 38.2088 32.3428 38.1545 32.383 38.1055L33.4663 37.29C33.4785 37.2795 33.4855 37.2655 33.4978 37.255C33.503 37.2498 33.5118 37.2515 33.5188 37.2463C34.2888 36.5428 34.8225 35.806 35.1935 34.9328C36.1543 32.6945 34.434 30.5508 33.2965 29.1315ZM33.9073 34.3833C33.6185 35.0623 33.1968 35.6398 32.5878 36.1998L30.976 37.4125C29.5165 38.361 26.3963 39.5335 21.8638 36.842C18.376 34.7718 14.5365 31.2718 10.7583 26.72L9.73629 25.4285C6.17854 20.7105 3.67604 16.192 2.49479 12.363C0.960038 7.38428 2.89379 4.71378 4.18879 3.56053C4.32004 3.44153 4.45129 3.33128 4.58079 3.22103L4.58604 3.21578L5.76029 2.34603C6.47429 1.89453 7.13579 1.64253 7.89704 1.52703C9.52279 1.28203 10.8458 2.99703 11.817 4.24303L12.0445 4.53178C14.0605 7.07453 14.2548 8.28378 14.1918 8.77728C14.1218 9.32503 13.2888 10.0268 12.5538 10.6445L12.4505 10.732C12.447 10.7355 12.4453 10.7408 12.4418 10.7443C12.4365 10.7478 12.4313 10.7495 12.426 10.753L11.3078 11.7873C11.3008 11.7943 11.2973 11.803 11.2903 11.8118C11.2833 11.8205 11.2693 11.824 11.2623 11.8328C11.089 12.027 10.9403 12.2213 10.8195 12.4225C10.1913 13.4743 9.59804 15.6478 10.5343 17.3295C11.3515 18.7995 12.9073 21.1218 14.337 22.9978C15.8315 24.8108 17.7373 26.8688 18.9728 27.9975C19.8985 28.8428 21.1865 29.1263 22.3013 29.1263C22.898 29.1263 23.4458 29.044 23.8605 28.9268C24.0793 28.8638 24.305 28.7728 24.5378 28.659C24.5518 28.652 24.5588 28.6398 24.5728 28.631C24.5798 28.6275 24.5903 28.6293 24.5973 28.624L25.8958 27.812C25.9378 27.784 25.9658 27.7473 26.0008 27.7123L26.0165 27.7298C26.8163 27.175 27.728 26.524 28.2985 26.6185C28.8043 26.6798 29.9523 27.1663 31.9718 29.716L32.2045 30.0083C33.188 31.235 34.5355 32.915 33.9073 34.3833Z" fill="white"/>
</svg>
